name rise42.5664peak47.7979fall81.9185.mot
datacolumns 19
datarows 21
range 8.72663100000000 8.75996800000000
endheader
time	ground_force1_vx	ground_force1_vy	ground_force1_vz	ground_force1_px	ground_force1_py	ground_force1_pz	ground_force2_vx	ground_force2_vy	ground_force2_vz	ground_force2_px	ground_force2_py	ground_force2_pz	ground_torque1_x	ground_torque1_y	ground_torque1_z	ground_torque2_x	ground_torque2_y	ground_torque2_z	
8.72663100000000	-46.71677800000000	811.09821399999998	47.42839200000000	0.08113900000000	0.00000000000000	0.10560000000000	-3.49626100000000	30.89375000000000	4.73677800000000	0.31529100000000	0.00000000000000	-0.07032200000000	0.00000000000000	17.45250500000000	0.00000000000000	0.00000000000000	2.68296600000000	0.00000000000000	
8.72829800000000	-47.32731700000000	810.43345299999999	47.32576300000000	0.08034100000000	0.00000000000000	0.10545500000000	-4.03332600000000	36.54166600000000	5.50189200000000	0.31845000000000	0.00000000000000	-0.07059600000000	0.00000000000000	17.42507400000000	0.00000000000000	0.00000000000000	3.13988000000000	0.00000000000000	
8.72996400000000	-47.94793100000000	809.65707699999996	47.21155700000000	0.07954400000000	0.00000000000000	0.10530900000000	-4.53714700000000	42.20277200000000	6.23628300000000	0.32130900000000	0.00000000000000	-0.07086000000000	0.00000000000000	17.39799300000000	0.00000000000000	0.00000000000000	3.58448200000000	0.00000000000000	
8.73163300000000	-48.57848200000000	808.76565600000004	47.08520500000000	0.07874800000000	0.00000000000000	0.10516200000000	-4.99286000000000	47.77204900000000	6.92160100000000	0.32389900000000	0.00000000000000	-0.07111700000000	0.00000000000000	17.37128800000000	0.00000000000000	0.00000000000000	4.00578200000000	0.00000000000000	
8.73329800000000	-49.21878000000000	807.75575800000001	46.94614200000000	0.07795100000000	0.00000000000000	0.10501300000000	-5.38864300000000	53.16543700000000	7.54343800000000	0.32624200000000	0.00000000000000	-0.07136900000000	0.00000000000000	17.34497500000000	0.00000000000000	0.00000000000000	4.39496100000000	0.00000000000000	
8.73496300000000	-49.86857800000000	806.62395200000003	46.79380800000000	0.07715400000000	0.00000000000000	0.10486200000000	-5.71614700000000	58.32376900000000	8.09189700000000	0.32836100000000	0.00000000000000	-0.07161600000000	0.00000000000000	17.31906400000000	0.00000000000000	0.00000000000000	4.74576100000000	0.00000000000000	
8.73663200000000	-50.52757200000000	805.36681199999998	46.62765700000000	0.07635500000000	0.00000000000000	0.10471100000000	-5.97058700000000	63.21405200000000	8.56170400000000	0.33027300000000	0.00000000000000	-0.07186100000000	0.00000000000000	17.29355400000000	0.00000000000000	0.00000000000000	5.05460900000000	0.00000000000000	
8.73829500000000	-51.19540000000000	803.98092199999996	46.44715400000000	0.07555500000000	0.00000000000000	0.10455800000000	-6.15053000000000	67.82839900000000	8.95192000000000	0.33199500000000	0.00000000000000	-0.07210300000000	0.00000000000000	17.26843800000000	0.00000000000000	0.00000000000000	5.32049100000000	0.00000000000000	
8.73997000000000	-51.87163800000000	802.46288100000004	46.25177900000000	0.07475200000000	0.00000000000000	0.10440300000000	-6.25744000000000	72.18107500000001	9.26535100000000	0.33354000000000	0.00000000000000	-0.07234400000000	0.00000000000000	17.24370100000000	0.00000000000000	0.00000000000000	5.54464900000000	0.00000000000000	
8.74162800000000	-52.55579700000000	800.80930799999999	46.04102900000000	0.07394600000000	0.00000000000000	0.10424700000000	-6.29508000000000	76.30423800000000	9.50774900000000	0.33492200000000	0.00000000000000	-0.07258500000000	0.00000000000000	17.21931600000000	0.00000000000000	0.00000000000000	5.73012400000000	0.00000000000000	
8.74329900000000	-53.24732900000000	799.01684899999998	45.81442400000000	0.07313700000000	0.00000000000000	0.10409000000000	-6.26882000000000	80.24294700000000	9.68691100000000	0.33615300000000	0.00000000000000	-0.07282600000000	0.00000000000000	17.19525300000000	0.00000000000000	0.00000000000000	5.88124300000000	0.00000000000000	
8.74496900000000	-53.94561700000000	797.08217800000000	45.57150500000000	0.07232400000000	0.00000000000000	0.10393100000000	-6.18494800000000	84.04998100000000	9.81176300000000	0.33724200000000	0.00000000000000	-0.07306600000000	0.00000000000000	17.17146900000000	0.00000000000000	0.00000000000000	6.00308400000000	0.00000000000000	
8.74664200000000	-54.64997900000000	795.00200900000004	45.31183900000000	0.07150600000000	0.00000000000000	0.10377100000000	-6.05002300000000	87.78093000000000	9.89152000000000	0.33819900000000	0.00000000000000	-0.07330800000000	0.00000000000000	17.14791400000000	0.00000000000000	0.00000000000000	6.10097000000000	0.00000000000000	
8.74830000000000	-55.35966700000000	792.77309900000000	45.03501900000000	0.07068300000000	0.00000000000000	0.10360900000000	-5.87032700000000	91.48988500000000	9.93495300000000	0.33903300000000	0.00000000000000	-0.07355000000000	0.00000000000000	17.12453000000000	0.00000000000000	0.00000000000000	6.18003300000000	0.00000000000000	
8.74997000000000	-56.07386500000000	790.39225299999998	44.74067100000000	0.06985400000000	0.00000000000000	0.10344600000000	-5.65143200000000	95.22598100000000	9.94982900000000	0.33975100000000	0.00000000000000	-0.07379300000000	0.00000000000000	17.10125100000000	0.00000000000000	0.00000000000000	6.24486800000000	0.00000000000000	
8.75163300000000	-56.79168800000000	787.85633600000006	44.42845200000000	0.06901900000000	0.00000000000000	0.10328200000000	-5.39790100000000	99.03090300000000	9.94251500000000	0.34036000000000	0.00000000000000	-0.07403700000000	0.00000000000000	17.07800000000000	0.00000000000000	0.00000000000000	6.29928600000000	0.00000000000000	
8.75330000000000	-57.51218300000000	785.16227500000002	44.09805300000000	0.06817700000000	0.00000000000000	0.10311700000000	-5.11312400000000	102.93737299999999	9.91775800000000	0.34086800000000	0.00000000000000	-0.07428300000000	0.00000000000000	17.05469400000000	0.00000000000000	0.00000000000000	6.34617700000000	0.00000000000000	
8.75496600000000	-58.23433000000000	782.30706899999996	43.74920400000000	0.06732800000000	0.00000000000000	0.10295000000000	-4.79927400000000	106.96855900000000	9.87863200000000	0.34128000000000	0.00000000000000	-0.07453000000000	0.00000000000000	17.03124000000000	0.00000000000000	0.00000000000000	6.38746300000000	0.00000000000000	
8.75663200000000	-58.95704000000000	779.28779399999996	43.38167200000000	0.06647100000000	0.00000000000000	0.10278200000000	-4.45736200000000	111.13828900000000	9.82660700000000	0.34160300000000	0.00000000000000	-0.07477700000000	0.00000000000000	17.00753800000000	0.00000000000000	0.00000000000000	6.42413200000000	0.00000000000000	
8.75831200000000	-59.67915600000000	776.10161200000005	42.99526600000000	0.06560600000000	0.00000000000000	0.10261300000000	-4.08738100000000	115.45189900000000	9.76173600000000	0.34184100000000	0.00000000000000	-0.07502600000000	0.00000000000000	16.98347900000000	0.00000000000000	0.00000000000000	6.45634300000000	0.00000000000000	
8.75996800000000	-60.39945700000000	772.74577999999997	42.58983600000000	0.06473300000000	0.00000000000000	0.10244300000000	-3.68849500000000	119.90753700000000	9.68291000000000	0.34200100000000	0.00000000000000	-0.07527600000000	0.00000000000000	16.95894600000000	0.00000000000000	0.00000000000000	6.48356900000000	0.00000000000000	
